<!--
	Icon source: https://www.freeicons.io/ui-interface-icons-4/brightness-icon-34299
-->

<!-- Generator: Adobe Illustrator 23.0.3, SVG Export Plug-In . SVG Version: 6.00 Build 0)  -->

<svg version="1.1" xmlns="http://www.w3.org/2000/svg" viewBox="0 0 512 512" style="enable-background:new 0 0 512 512;" width="36" height="36">
	<style type="text/css">
		.st0{fill:#9da4c6;}
	</style>

	<path class="st0"
		d="M405.5,256
		c0,82.5-66.9,149.3-149.3,149.3
		c-82.5,0-149.3-66.9-149.3-149.3
		s66.9-149.3,149.3-149.3
		C338.7,106.7,405.5,173.5,405.5,256z"/>

	<g>
		<path class="st0"
			d="M256.2,74.7
			c11.8,0,21.3-9.6,21.3-21.3
			v-32
			C277.5,9.6,268,0,256.2,0
			s-21.3,9.6-21.3,21.3
			v32
			C234.9,65.1,244.4,74.7,256.2,74.7z"/>

		<path class="st0"
			d="M86.7,133.5l-27.7-16
			c-10.2-5.9-23.3-2.4-29.1,7.8
			c-5.9,10.2-2.4,23.3,7.8,29.1
			l27.7,16
			c3.4,1.9,7,2.9,10.6,2.9
			c7.4,0,14.6-3.8,18.5-10.7
			C100.4,152.4,96.9,139.4,86.7,133.5z"/>

		<path class="st0"
			d="M474.7,357.5l-27.7-16
			c-10.2-5.9-23.3-2.4-29.1,7.8
			c-5.9,10.2-2.4,23.3,7.8,29.1
			l27.7,16
			c3.3,1.9,7,2.9,10.6,2.9
			c7.4,0,14.6-3.8,18.5-10.7
			C488.4,376.4,484.9,363.4,474.7,357.5z"/>

		<path class="st0"
			d="M65.4,341.5l-27.7,16
			c-10.2,5.9-13.7,18.9-7.8,29.1
			c4,6.8,11.1,10.7,18.5,10.7
			c3.6,0,7.3-0.9,10.6-2.9
			l27.7-16
			c10.2-5.9,13.7-18.9,7.8-29.1
			C88.6,339.1,75.6,335.6,65.4,341.5z"/>

		<path class="st0"
			d="M436.3,173.3
			c3.6,0,7.3-0.9,10.6-2.9
			l27.7-16
			c10.2-5.9,13.7-18.9,7.8-29.1
			c-5.9-10.2-19-13.7-29.1-7.8
			l-27.7,16
			c-10.2,5.9-13.7,18.9-7.8,29.1
			C421.8,169.5,429,173.3,436.3,173.3z"/>

		<path class="st0"
			d="M256.2,437.3
			c-11.8,0-21.3,9.6-21.3,21.3
			v32
			c0,11.8,9.5,21.3,21.3,21.3
			s21.3-9.6,21.3-21.3
			v-32
			C277.5,446.9,268,437.3,256.2,437.3z"/>
	</g>
</svg>
