<svg height='36' width='36' xmlns="http://www.w3.org/2000/svg" xmlns:xlink="http://www.w3.org/1999/xlink" version="1.2" viewBox="0 50 128 70" xml:space="preserve">
	<g fill="none" stroke="#bdebf2" stroke-width="3" stroke-miterlimit="10">
		<circle cx="23" cy="71" r="2" />
		<path d="M35,80
			c3.3,0,6,2.7,6,6
			v7" />
		<path d="M57,128
			V78
			c0-16-10.5-29-23.5-29
			c-0.2,0-0.3,0-0.5,0
			v0
			c-8.4,0.1-15.9,4-21,10
			v26
			c5.1,6,12.6,9.8,21,10
			v0
			c0.2,0,0.3,0,0.5,0
			c2.6,0,5.1-0.5,7.5-1.5
			V128" />
		<path d="M44.6,63.1
			c-2.2-2.9-4.9-5.2-7.8-6.8" />
		<circle cx="105" cy="71" r="2" />
		<path d="M93,80
			c-3.3,0-6,2.7-6,6
			v7" />
		<path d="M71,128
			V78
			c0-16,10.5-29,23.5-29
			c0.2,0,0.3,0,0.5,0
			v0
			c8.4,0.1,15.9,4,21,10
			v26
			c-5.1,6-12.6,9.8-21,10
			v0
			c-0.2,0-0.3,0-0.5,0
			c-2.6,0-5.1-0.5-7.5-1.5
			V128" />
		<path d="M83.4,63.1
			c2.2-2.9,4.9-5.2,7.8-6.8" />
	</g>
</svg>
