<!--
	Icon source: https://www.materialui.co/icon/volume-off
-->
<svg xmlns="http://www.w3.org/2000/svg" width="36" height="36" viewBox="0 0 24 24">
	<path d="M16.5 12
		c0-1.77-1.02-3.29-2.5-4.03
		v2.21 l2.45 2.45
		c.03-.2.05-.41.05-.63z
		m2.5 0
		c0 .94-.2 1.82-.54 2.64
		l1.51 1.51
		C20.63 14.91 21 13.5 21 12
		c0-4.28-2.99-7.86-7-8.77
		v2.06
		c2.89.86 5 3.54 5 6.71z
		M4.27 3L3 4.27 7.73 9
		H3 v6 h4 l5 5
		v-6.73 l4.25 4.25
		c-.67.52-1.42.93-2.25 1.18
		v2.06
		c1.38-.31 2.63-.95 3.69-1.81
		L19.73 21 21 19.73
		l-9-9
		L4.27 3z
		M12 4
		L9.91 6.09 12 8.18
		V4z"
		fill="#6184c2" />
</svg>
