<!--
	To get original icon
	Icon source: https://thenounproject.com/pathlord/collection/music-and-sound/?i=1301168
	This one has been made by formatting headphone_mute
-->
<svg xmlns="http://www.w3.org/2000/svg" width="36" height="36" viewBox="0 0 100 100">
	<path d="M60.66,58.51
		A1.5,1.5,0,0,1,60.66,58.51Z
		m22.46-.86
		a34.59,34.59,0,1,0-66.56.23,12.89,12.89,0,0,0-4.67,15.56
		l2,4.83
		a12.92,12.92,0,0,0,11.87,7.89,12.42,12.42,0,0,0,3.92-.63
		l4.93-1.34.08,0
		h.2a5.14,5.14,0,0,0,2-.4
		h0
		A5.16,5.16,0,0,0,39.66,77
		L30.89,56
		a5.16,5.16,0,0,0-6.74-2.77,5.1,5.1,0,0,0-1.8,1.28
		l-.09,0-3,1.76
		A31.45,31.45,0,0,1,30.58,23.39
		l4,3.26
		a24.54,24.54,0,0,1,30.45,0
		l4-3.25
		a31.47,31.47,0,0,1,11.38,32.7
		l-2.69-1.56-.09,0
		a5.1,5.1,0,0,0-1.8-1.28
		A5.16,5.16,0,0,0,69.11,56
		L60.34,77
		a5.16,5.16,0,0,0,2.77,6.74
		h0
		a5.12,5.12,0,0,0,2,.4
		h.2
		l.08,0,4.86,1.32
		a12.67,12.67,0,0,0,4,.64,12.9,12.9,0,0,0,11.88-7.88
		l2-4.83
		A12.88,12.88,0,0,0,83.11,57.66Z"
		fill="#bdebf2" />
</svg>
