/* XPM */
static char *_176fba77210ed34a5404c404ef869c4[] = {
/* columns rows colors chars-per-pixel */
"106 106 18 1 ",
"  c None",
". c #BCEAF1",
"X c #BCEBF1",
"o c #BDEBF1",
"O c #BEEBF1",
"+ c #BCEAF2",
"@ c #BDEAF2",
"# c #BCEBF2",
"$ c #BDEBF2",
"% c #BDEAF3",
"& c #BDEBF3",
"* c #BEEAF2",
"= c #BEEBF2",
"- c #BDECF1",
"; c #BCECF2",
": c #BDECF2",
"> c #BCECF3",
", c #BDECF3",
/* pixels */
"                                                                                                          ",
"                                                                                                          ",
"                                                                                                          ",
"                                                                                                          ",
"                                                                                                          ",
"                                                                                                          ",
"                                                                                                          ",
"                                                                                                          ",
"                                                                                                          ",
"                                                                                                          ",
"                                                                                                          ",
"                                                                                                          ",
"                                                                                                          ",
"                                                                                                          ",
"                                                              =                                           ",
"                                                              ====                                        ",
"                                                              ===+;+=                                     ",
"                                                              +==;=====                                   ",
"                                                    +         ;==+==+=+==                                 ",
"                                                   ==         +==;+;;=;===                                ",
"                                                  ++;         ;==+;+=====+;>                              ",
"                                                 ====         ===;==+;+;=;+==                             ",
"                                                ==+;=         =+=+==;==+======                            ",
"                                               ==+=+=         =;=;+;+==;+;+;=+==                          ",
"                                              =++=+==            ===+;=+=========                         ",
"                                             ==;;=;==              ====;+;+;+;+;==                        ",
"                                            =+=+==+;=                ==+;==+;==+=+>                       ",
"                                           ===+=;+===                 +=+==;+==;+=;                       ",
"                                          =++=+==;===                   ;==+=+;+====                      ",
"                                         +==;=;==+;+=                    ==;=;==+;+;=                     ",
"                                        +=+===+;+====                     =+=+==;==+==                    ",
"                                       ===;=;+==;=;+=                      ;=;+;+==;+=                    ",
"                                      ===+;+;==+;+;==                       =====+;====                   ",
"                                     =+==;==+==;==+==                        =+;=;+=+;=;                  ",
"                                    ===+=+==;+;+==;==                         +=====+===                  ",
"                                   =+;+==;+;====+;+==                         >=+;+;;=;+=                 ",
"                                  =+===+=+;+====;==+;         =+               =+=+==;===                 ",
"                                 ++=+;=;=;==+;+;+==;=         =;;               ;=;==+;+;;                ",
"                                ==;=;+=+=+==;==+;+;+=         ===+=             +;+;+====+                ",
"                               =+=+====;=;+;+==;=====         ;+===;             ===;=;+==                ",
"             ==+===+;+;=+;=;==+;;+;==+;+;+;==+;++=+==         ====+=             ===+;=;=;=               ",
"             ==;+==;==+====+;+====+==;====+==;==;=;==         +=;+;==             ;+===+=+=               ",
"             ==+;+;+==;=+;+==;=;==;==+====;==+====+;=         ;====;=;            ==+;+=+==               ",
"             =======+;+===;==+=++;+==;+;+;+==;+;;+===         +=;+=+=+            ;+==;=;+==              ",
"             =======;+;=+;=;+=+=;==+;==+;==+;==+=;===         ;===+==;=            ===+;==+>              ",
"             ;+;+;+;==+====+;=;=+==;+==;+==;+==;=+;+=         ==;+;==+=            =;+==;+==              ",
"             ==+;==+==;=+;+===+;;+;+;+;+;+;+;+;++====         =+===;+;==           ==;=;=;=;              ",
"             ==;+==;+;+===;=;+==================;=;+=         =;;+=+===;           ==+=+=+=+              ",
"             ===+;=;==+;=;==+;=;+=+=+=+=+=+=+=+==;===         ====+=+;==            +=+=+=+=              ",
"             ;=====+;+===+;+===+;=;=;=;=;=;=;=;==+;+=         +=;+;===;+=           ;=;=;=;+=             ",
"             ==++;+==;=;+===+;+===+;==+;==+;==+;+====         ;====;+=+==           ==+;==+==             ",
"             ==;==;==+=+;=;+==;=;+==;+==;+==;+==;=;+=         +=;+=+;=;==           ;+==;+===             ",
"             ===+;=;+=+===+;==+;=;==+;=;=;==+;=;==+;=         ;===+==;=;=           +;=;=;==>             ",
"             =+====+;=;=;+==;+===+;+===+=+;+===+;+===         ==;+;==+=+=           ===+=+;+=             ",
"             =;=+;+===+;=;=;=;=;+===+;+=+===+;+==;=;=         =+===;+;===           +;+=+====             ",
"             ;+===;=;+===+=+=+=+;=;+==;=;=;+==;==+=+=         =;;+=+==;++           ==;=;=;+=             ",
"             ===+;=;==+;+=+=+=+===+;=;==+;=;==+;+=+==         ===+;+;====           =+;===+=+             ",
"             =+====+;+==;=;=;=;=;+===+;+===+;+==;=;==         +==;==+=;+            ==+=;+;=              ",
"             =;=+;+==;=;==+;==+;=;=;+===+;+==;=;==+;=         ;==+==;+;=           ===;====;              ",
"             ;+===;==+=+;+==;+===+=+;=;+==;==+=+;+===         +==;+;====           =+;+=;+=+              ",
"             ===+;=;+=+==;==+;=;+=+==;==+;=;+=+==;===         ;==+;+;+=            =;+;=;===              ",
"             =+====+;=;==+;+===+;=;==+;+===+;=;==+;+=         ===;=====            ===+=+=+>              ",
"             =;=+;+===+;+===+;+===+;+===+;+===+;+====         =+=+===+            +;==;=;==>              ",
"             ;+===;=;+==;=;+==;=;+==;=;+==;=;+==;=;+=         =;=;+=;;            =;+;+=+==               ",
"             ==+;+;======+=+;+;=+;=;==+;=;==+;=;==+;=         =+;====             ==;====+=               ",
"             =====+==;+;=;====+====+;+===+;+===+;+===         =;+==;             =+=+=+;=;=               ",
"                               =+;=;=;=;+===+;+==;=;=         =+;+;              =;=;=;+==                ",
"                                =+=+=+=+;=;+==;==+=+=         ====+             =;+=+===+;                ",
"                                 ====;=;==+;==+;=====         ===               =+;==+;==;                ",
"                                  =+=+=+;+==;+==+;+;+         +=               ==;+==;+==                 ",
"                                   =+;===;=;=;=;;==+;                         ;=========>                 ",
"                                    ==;+=+=+=+=++====                         +=+;+;+;+;                  ",
"                                     =+==;=;=;=;;+;==                        ===;+;+=+=;                  ",
"                                      ===+=+=+=+==+==                       =++;====+==                   ",
"                                       =+;==+;====;==                      ====;=+=+;=                    ",
"                                        ==;+==;++;+==                     ==;+=+=;+==>                    ",
"                                         =====+=;==+;                    ===+;=====+=                     ",
"                                          =+;+;=+==;=                   ==;+==;++;=;                      ",
"                                           =+=+=;+;+=                 =++=+=+=+=+==                       ",
"                                            ==;+=====                ===;=;=;=;=;==                       ",
"                                             ===+=+==              +;+;++=+=+=+===                        ",
"                                              =+;=;==            =======;=;=;=;==                         ",
"                                               ===+;=         =+==;==+;===+;===>                          ",
"                                                ;+===         =;+=+==;+=;+==;+                            ",
"                                                 ====         =+;+;=;====;===                             ",
"                                                  =+=         ====+=+=+;=++=                              ",
"                                                   ==         ;+==;=;=;+=;                                ",
"                                                    ;         ==+;+=+====                                 ",
"                                                              ;=;==+;=+                                   ",
"                                                              +=+===>                                     ",
"                                                              ==;=                                        ",
"                                                              =                                           ",
"                                                                                                          ",
"                                                                                                          ",
"                                                                                                          ",
"                                                                                                          ",
"                                                                                                          ",
"                                                                                                          ",
"                                                                                                          ",
"                                                                                                          ",
"                                                                                                          ",
"                                                                                                          ",
"                                                                                                          ",
"                                                                                                          ",
"                                                                                                          ",
"                                                                                                          "
};
