/* XPM */
static char *_babd5df983c41af7128bbe6098773b5[] = {
/* columns rows colors chars-per-pixel */
"106 106 17 1 ",
"  c None",
". c #BCEAF1",
"X c #BCEBF1",
"o c #BDEBF1",
"O c #BEEBF1",
"+ c #BCEAF2",
"@ c #BDEAF2",
"# c #BCEBF2",
"$ c #BDEBF2",
"% c #BDEAF3",
"& c #BDEBF3",
"* c #BEEAF2",
"= c #BEEBF2",
"- c #BDECF1",
"; c #BDECF2",
": c #BCECF3",
"> c #BDECF3",
/* pixels */
"                                                                                                          ",
"                                                                                                          ",
"                                                                                                          ",
"                                                                                                          ",
"                                                                                                          ",
"                                                                                                          ",
"                                                                                                          ",
"                                                                                                          ",
"                                                                                                          ",
"                                                                                                          ",
"                                                                                                          ",
"                                                                                                          ",
"                                                                                                          ",
"                                                                                                          ",
"                  $$                                          $                                           ",
"                 $$$$                                         $$$$                                        ",
"                $$$$$$                                        $$$$$$$                                     ",
"               $$$$$$$$                                       $$$$$$$$$                                   ",
"              $$$$$$$$$$                            $         $$$$$$$$$$$                                 ",
"              $$$$$$$$$$$                          $$         $$$$$$$$$$$$                                ",
"               $$$$$$$$$$$                        $$$         $$$$$$$$$$$$$:                              ",
"                $$$$$$$$$$$                      $$$$         $$$$$$$$$$$$$$$                             ",
"                 $$$$$$$$$$$                    $$$$$         $$$$$$$$$$$$$$$$                            ",
"                  $$$$$$$$$$$                  $$$$$$         $$$$$$$$$$$$$$$$$$                          ",
"                   $$$$$$$$$$$                $$$$$$$            $$$$$$$$$$$$$$$$                         ",
"                    $$$$$$$$$$$              $$$$$$$$              $$$$$$$$$$$$$$$                        ",
"                     $$$$$$$$$$$            $$$$$$$$$                $$$$$$$$$$$$$;                       ",
"                      $$$$$$$$$$$           $$$$$$$$$                 $$$$$$$$$$$$$                       ",
"                       $$$$$$$$$$$           ;$$$$$$$                   $$$$$$$$$$$$                      ",
"                        $$$$$$$$$$$           ;$$$$$$                    $$$$$$$$$$$$                     ",
"                         $$$$$$$$$$$           ;$$$$$                     $$$$$$$$$$$$                    ",
"                          $$$$$$$$$$$           $$$$$                      $$$$$$$$$$$                    ",
"                           $$$$$$$$$$$           ;$$$                       $$$$$$$$$$$                   ",
"                            $$$$$$$$$$$           ;$$                        $$$$$$$$$$;                  ",
"                             $$$$$$$$$$$           ;$                         $$$$$$$$$$                  ",
"                              $$$$$$$$$$$           ;                         $$$$$$$$$$$                 ",
"                               $$$$$$$$$$$                    $$               $$$$$$$$$$                 ",
"                                $$$$$$$$$$$                   $$$               $$$$$$$$$>                ",
"                                 $$$$$$$$$$$                  $$$$$             $$$$$$$$$$                ",
"                                  $$$$$$$$$$$                 $$$$$;             $$$$$$$$$                ",
"             =$$$$$$$$$$$$$$$$$$$$$$$$$$$$$$$$                $$$$$$             $$$$$$$$$$               ",
"             =$$$$$$$$$$$$$$$$$$$$$$$$$$$$$$$$$               $$$$$$$             $$$$$$$$$               ",
"             =$$$$$$$$$$$$$$$$$$$$$$$$$$$$$$$$$$              $$$$$$$$            $$$$$$$$$               ",
"             =$$$$$$$$$$$$$$$$$$$$$$$$$$$$$$$$$$$             $$$$$$$$            $$$$$$$$$$              ",
"             $$$$$$$$$$$$$$$$$$$$$$$$$$$$$$$$$$$$$            $$$$$$$$$            $$$$$$$$$              ",
"             $$$$$$$$$$$$$$$$$$$$$$$$$$$$$$$$$$$$$$           ;$$$$$$$$            $$$$$$$$$              ",
"             $$$$$$$$$$$$$$$$$$$$$$$$$$$$$$$$$$$$$$$           ;$$$$$$$$           $$$$$$$$$              ",
"             =$$$$$$$$$$$$$$$$$$$$$$$$$$$$$$$$$$$$$$$           ;$$$$$$$           $$$$$$$$$              ",
"             =$$$$$$$$$$$$$$$$$$$$$$$$$$$$$$$$$$$$$$$$           $$$$$$$            $$$$$$$$              ",
"             =$$$$$$$$$$$$$$$$$$$$$$$$$$$$$$$$$$$$$$$$$           ;$$$$$$           $$$$$$$$$             ",
"             =$$$$$$$$$$$$$$$$$$$$$$$$$$$$$$$$$$$$$$$$$$           ;$$$$$           $$$$$$$$$             ",
"             =$$$$$$$$$$$$$$$$$$$$$$$$$$$$$$$$$$$$$$$$$$$           $$$$$           $$$$$$$$$             ",
"             =$$$$$$$$$$$$$$$$$$$$$$$$$$$$$$$$$$$$$$$$$$$$           $$$$           $$$$$$$$$             ",
"             =$$$$$$$$$$$$$$$$$$$$$$$$$$$$$$$$$$$$$$$$$$$$$           $$$           $$$$$$$$$             ",
"             =$$$$$$$$$$$$$$$$$$$$$$$$$$$$$$$$$$$$$$$$$$$$$$           $$           $$$$$$$$$             ",
"             =$$$$$$$$$$$$$$$$$$$$$$$$$$$$$$$$$$$$$$$$$$$$$$$                       $$$$$$$$$             ",
"             =$$$$$$$$$$$$$$$$$$$$$$$$$$$$$$$$$$$$$$$$$$$$$$$$                      $$$$$$$$>             ",
"             =$$$$$$$$$$$$$$$$$$$$$$$$$$$$$$$$$$$$$$$$$$$$$$$$$                     $$$$$$$$              ",
"             =$$$$$$$$$$$$$$$$$$$$$$$$$$$$$$$$$$$$$$$$$$$$$$$$$$                   $$$$$$$$$              ",
"             =$$$$$$$$$$$$$$$$$$$$$$$$$$$$$$$$$$$$$$$ $$$$$$$$$$$                  $$$$$$$$$              ",
"             =$$$$$$$$$$$$$$$$$$$$$$$$$$$$$$$$$$$$$$$  $$$$$$$$$$$                 $$$$$$$$$              ",
"             =$$$$$$$$$$$$$$$$$$$$$$$$$$$$$$$$$$$$$$$   $$$$$$$$$$$                $$$$$$$$$              ",
"             =$$$$$$$$$$$$$$$$$$$$$$$$$$$$$$$$$$$$$$$    $$$$$$$$$$$              $$$$$$$$$>              ",
"             =$$$$$$$$$$$$$$$$$$$$$$$$$$$$$$$$$$$$$$$     $$$$$$$$$$$             $$$$$$$$$               ",
"             =$$$$$$$$$$$$$$$$$$$$$$$$$$$$$$$$$$$$$$$      $$$$$$$$$$$            $$$$$$$$$               ",
"             =$$$$$$$$$$$$$$$$$$$$$$$$$$$$$$$$$$$$$$$       $$$$$$$$$$$           $$$$$$$$$               ",
"                               $$$$$$$$$$$$$$$$$$$$$$        $$$$$$$$$$$           ;$$$$$$                ",
"                                $$$$$$$$$$$$$$$$$$$$$         $$$$$$$$$$$           ;$$$$$                ",
"                                 $$$$$$$$$$$$$$$$$$$$          $$$$$$$$$$$           $$$$                 ",
"                                  $$$$$$$$$$$$$$$$$$$           $$$$$$$$$$$           $$$                 ",
"                                   $$$$$$$$$$$$$$$$$$            $$$$$$$$$$$           $>                 ",
"                                    $$$$$$$$$$$$$$$$$             $$$$$$$$$$$                             ",
"                                     $$$$$$$$$$$$$$$$              $$$$$$$$$$$                            ",
"                                      $$$$$$$$$$$$$$$               $$$$$$$$$$$                           ",
"                                       $$$$$$$$$$$$$$                $$$$$$$$$$$                          ",
"                                        $$$$$$$$$$$$$                 $$$$$$$$$$$                         ",
"                                         $$$$$$$$$$$$                  $$$$$$$$$$$                        ",
"                                          $$$$$$$$$$$                  >$$$$$$$$$$$                       ",
"                                           $$$$$$$$$$                 $$$$$$$$$$$$$$                      ",
"                                            $$$$$$$$$                $$$$$$$$$$$$$$$$                     ",
"                                             $$$$$$$$              $$$$$$$$$$$$$$$$$$$                    ",
"                                              $$$$$$$            $$$$$$$$$$$$$$$$$$$$$$                   ",
"                                               $$$$$$         $=$$$$$$$$$$$$$$$$$$$$$$$$                  ",
"                                                $$$$$         $$$$$$$$$$$$$$$$$$$$$$$$$$$                 ",
"                                                 $$$$         $$$$$$$$$$$$$$$  $$$$$$$$$$$                ",
"                                                  $$$         $$$$$$$$$$$$$$    $$$$$$$$$$$               ",
"                                                   $$         $$$$$$$$$$$$       $$$$$$$$$$$              ",
"                                                    $         $$$$$$$$$$          $$$$$$$$$$              ",
"                                                              $$$$$$$=$            $$$$$$$$               ",
"                                                              $$$$$$                $$$$$$                ",
"                                                              $$$;                   $$$$                 ",
"                                                                                      $$                  ",
"                                                                                                          ",
"                                                                                                          ",
"                                                                                                          ",
"                                                                                                          ",
"                                                                                                          ",
"                                                                                                          ",
"                                                                                                          ",
"                                                                                                          ",
"                                                                                                          ",
"                                                                                                          ",
"                                                                                                          ",
"                                                                                                          ",
"                                                                                                          ",
"                                                                                                          "
};
