/* XPM */
const static char *volume_down[] = {
/* columns rows colors chars-per-pixel */
"106 106 10 1 ",
"  c None",
". c #BDEBF2",
"X c #BDEBF2",
"o c #BDEBF2",
"O c #BDEBF2",
"+ c #BDEBF2",
"@ c #BDEBF2",
"# c #BDEBF2",
"$ c #BDEBF2",
"% c #BDEBF2",
/* pixels */
"                                                                                                          ",
"                                                                                                          ",
"                                                                                                          ",
"                                                                                                          ",
"                                                                                                          ",
"                                                                                                          ",
"                                                                                                          ",
"                                                                                                          ",
"                                                                                                          ",
"                                                                                                          ",
"                                                                                                          ",
"                                                                                                          ",
"                                                                                                          ",
"                                                                                                          ",
"                                                                                                          ",
"                                                                                                          ",
"                                                                                                          ",
"                                                                                                          ",
"                                                             o                                            ",
"                                                            oo                                            ",
"                                                           ooo                                            ",
"                                                          oooo                                            ",
"                                                         ooooo                                            ",
"                                                        oooooo                                            ",
"                                                       ooooooo                                            ",
"                                                      oooooooo                                            ",
"                                                     ooooooooo                                            ",
"                                                    oooooooooo                                            ",
"                                                   ooooooooooo                                            ",
"                                                  oooooooooooo                                            ",
"                                                 ooooooooooooo                                            ",
"                                                oooooooooooooo                                            ",
"                                               ooooooooooooooo                                            ",
"                                              oooooooooooooooo                                            ",
"                                             ooooooooooooooooo                                            ",
"                                            @ooooooooooooooooo         o                                  ",
"                                           @oooooooooooooooooo         o@                                 ",
"                                          oooooooooooooooooooo         ooo                                ",
"                                         @oooooooooooooooooooo         oooo                               ",
"                                        @ooooooooooooooooooooo         ooooo                              ",
"                      oooooooooooooooooooooooooooooooooooooooo         oooooo                             ",
"                      oooooooooooooooooooooooooooooooooooooooo         ooooooo                            ",
"                      oooooooooooooooooooooooooooooooooooooooo         oooooooo                           ",
"                      oooooooooooooooooooooooooooooooooooooooo         ooooooooo                          ",
"                      oooooooooooooooooooooooooooooooooooooooo         ooooooooo                          ",
"                      oooooooooooooooooooooooooooooooooooooooo         oooooooooo                         ",
"                      oooooooooooooooooooooooooooooooooooooooo         ooooooooo$                         ",
"                      oooooooooooooooooooooooooooooooooooooooo         ooooooooooo                        ",
"                      oooooooooooooooooooooooooooooooooooooooo         ooooooooooo                        ",
"                      oooooooooooooooooooooooooooooooooooooooo         oooooooooooo                       ",
"                      oooooooooooooooooooooooooooooooooooooooo         oooooooooo@o                       ",
"                      oooooooooooooooooooooooooooooooooooooooo         oooooooooooo                       ",
"                      oooooooooooooooooooooooooooooooooooooooo         oooooooooo@o                       ",
"                      oooooooooooooooooooooooooooooooooooooooo         oooooooooo@o                       ",
"                      oooooooooooooooooooooooooooooooooooooooo         oooooooooooo                       ",
"                      oooooooooooooooooooooooooooooooooooooooo         oooooooooo@o                       ",
"                      oooooooooooooooooooooooooooooooooooooooo         oooooooooooo                       ",
"                      oooooooooooooooooooooooooooooooooooooooo         ooooooooooo                        ",
"                      oooooooooooooooooooooooooooooooooooooooo         ooooooooooo                        ",
"                      oooooooooooooooooooooooooooooooooooooooo         oooooooooo                         ",
"                      oooooooooooooooooooooooooooooooooooooooo         oooooooooo                         ",
"                      oooooooooooooooooooooooooooooooooooooooo         oooooooo+                          ",
"                      oooooooooooooooooooooooooooooooooooooooo         ooooooooo                          ",
"                      oooooooooooooooooooooooooooooooooooooooo         ooooooo@                           ",
"                      oooooooooooooooooooooooooooooooooooooooo         ooooooo                            ",
"                      oooooooooooooooooooooooooooooooooooooooo         oooooo                             ",
"                                        @ooooooooooooooooooooo         ooooo                              ",
"                                         @oooooooooooooooooooo         oooo                               ",
"                                          oooooooooooooooooooo         ooo                                ",
"                                           @oooooooooooooooooo         oo                                 ",
"                                            @ooooooooooooooooo         o                                  ",
"                                             ooooooooooooooooo                                            ",
"                                              oooooooooooooooo                                            ",
"                                               ooooooooooooooo                                            ",
"                                                oooooooooooooo                                            ",
"                                                 ooooooooooooo                                            ",
"                                                  oooooooooooo                                            ",
"                                                   ooooooooooo                                            ",
"                                                    oooooooooo                                            ",
"                                                     ooooooooo                                            ",
"                                                      oooooooo                                            ",
"                                                       ooooooo                                            ",
"                                                        oooooo                                            ",
"                                                         ooooo                                            ",
"                                                          oooo                                            ",
"                                                           ooo                                            ",
"                                                            oo                                            ",
"                                                             o                                            ",
"                                                                                                          ",
"                                                                                                          ",
"                                                                                                          ",
"                                                                                                          ",
"                                                                                                          ",
"                                                                                                          ",
"                                                                                                          ",
"                                                                                                          ",
"                                                                                                          ",
"                                                                                                          ",
"                                                                                                          ",
"                                                                                                          ",
"                                                                                                          ",
"                                                                                                          ",
"                                                                                                          ",
"                                                                                                          ",
"                                                                                                          ",
"                                                                                                          "
};
